<svg id="Capa_1" enable-background="new 0 0 512 512" height="512" viewBox="0 0 512 512" width="512" xmlns="http://www.w3.org/2000/svg"><g><path d="m271 512v-31.701c24.062-4.942 43.987-21.306 53.643-43.299h-137.286c9.655 21.993 29.581 38.357 53.643 43.299v31.701z"/><path d="m451 150h61v30h-61z"/><path d="m451.002 225.003h29.997v59.994h-29.997z" transform="matrix(.707 -.707 .707 .707 -43.824 404.2)"/><path d="m436.003 60.002h59.994v29.997h-59.994z" transform="matrix(.707 -.707 .707 .707 83.455 351.479)"/><path d="m0 150h61v30h-61z"/><path d="m16.003 240.002h59.994v29.997h-59.994z" transform="matrix(.707 -.707 .707 .707 -166.839 107.215)"/><path d="m31.002 45.003h29.997v59.994h-29.997z" transform="matrix(.707 -.707 .707 .707 -39.56 54.494)"/><path d="m91 165c0 51.108 24.009 90.132 47.227 127.866 7.67 12.46 15.13 26.694 21.674 39.134h81.099v-122c0-16.538-13.462-30-30-30v-30c18.007 0 33.995 8.134 45 20.729 11.005-12.595 26.993-20.729 45-20.729v30c-16.538 0-30 13.462-30 30v122h81.099c6.544-12.44 14.004-26.673 21.674-39.134 23.218-37.734 47.227-76.758 47.227-127.866 0-90.981-74.019-165-165-165s-165 74.019-165 165z"/><path d="m338.817 362h-165.634c4.856 14.132 7.817 28.936 7.817 45h150c0-16.064 2.961-30.868 7.817-45z"/></g></svg>