<svg id="Capa_1" enable-background="new 0 0 512 512" height="512" viewBox="0 0 512 512" width="512" xmlns="http://www.w3.org/2000/svg"><g><path d="m271 512v-31.509c34.192-6.968 60-37.271 60-73.491 0-42.667 20.801-76.936 42.823-113.217 23.194-38.211 47.177-77.724 47.177-128.783 0-90.981-74.019-165-165-165s-165 74.019-165 165c0 51.059 23.983 90.572 47.177 128.784 22.022 36.28 42.823 70.549 42.823 113.216 0 36.219 25.808 66.522 60 73.491v31.509zm-77.438-180c-8.535-18.832-19.215-36.443-29.739-53.783-22.022-36.281-42.823-70.55-42.823-113.217 0-74.439 60.561-135 135-135s135 60.561 135 135c0 42.667-20.801 76.936-42.823 113.217-10.525 17.339-21.204 34.951-29.74 53.783h-47.437v-122c0-16.542 13.458-30 30-30v-30c-17.908 0-33.997 7.896-45 20.377-11.003-12.481-27.092-20.377-45-20.377v30c16.542 0 30 13.458 30 30v122zm11.108 29.99h102.66c-2.699 9.594-4.648 19.564-5.623 30.01h-91.414c-.974-10.446-2.924-20.416-5.623-30.01zm8.91 60h84.839c-6.191 17.468-22.864 30.01-42.419 30.01s-36.228-12.542-42.42-30.01z"/><path d="m451 150h61v30h-61z"/><path d="m451.5 224.644h30v60.712h-30z" transform="matrix(.699 -.715 .715 .699 -41.901 410.485)"/><path d="m436.144 60h60.712v30h-60.712z" transform="matrix(.715 -.699 .699 .715 80.403 347.354)"/><path d="m0 150h61v30h-61z"/><path d="m16 240h60v30h-60z" transform="matrix(.707 -.707 .707 .707 -166.839 107.215)"/><path d="m31 45h30v60h-30z" transform="matrix(.707 -.707 .707 .707 -39.56 54.494)"/></g></svg>